<svg width="20" height="18" viewBox="0 0 20 18" fill="none" xmlns="http://www.w3.org/2000/svg">
<path fill-rule="evenodd" clip-rule="evenodd" d="M10.3467 1.03417C10.457 0.923587 10.588 0.835847 10.7323 0.775982C10.8766 0.716117 11.0312 0.685303 11.1874 0.685303C11.3436 0.685303 11.4983 0.716117 11.6426 0.775982C11.7868 0.835847 11.9179 0.923587 12.0282 1.03417L19.1532 8.15917C19.2638 8.26948 19.3515 8.40052 19.4114 8.54479C19.4712 8.68906 19.502 8.84373 19.502 8.99992C19.502 9.15612 19.4712 9.31078 19.4114 9.45505C19.3515 9.59932 19.2638 9.73037 19.1532 9.84067L12.0282 16.9657C11.8052 17.1887 11.5028 17.3139 11.1874 17.3139C10.8721 17.3139 10.5697 17.1887 10.3467 16.9657C10.1237 16.7427 9.99842 16.4403 9.99842 16.1249C9.99842 15.8096 10.1237 15.5072 10.3467 15.2842L16.6333 8.99992L10.3467 2.71568C10.2361 2.60537 10.1483 2.47432 10.0885 2.33005C10.0286 2.18579 9.9978 2.03112 9.9978 1.87492C9.9978 1.71873 10.0286 1.56406 10.0885 1.41979C10.1483 1.27553 10.2361 1.14448 10.3467 1.03417Z" fill="#B4B4B4"/>
<path fill-rule="evenodd" clip-rule="evenodd" d="M0.5 9C0.5 8.68506 0.625111 8.38301 0.847811 8.16031C1.07051 7.93761 1.37256 7.8125 1.6875 7.8125H17.125C17.4399 7.8125 17.742 7.93761 17.9647 8.16031C18.1874 8.38301 18.3125 8.68506 18.3125 9C18.3125 9.31494 18.1874 9.61699 17.9647 9.83969C17.742 10.0624 17.4399 10.1875 17.125 10.1875H1.6875C1.37256 10.1875 1.07051 10.0624 0.847811 9.83969C0.625111 9.61699 0.5 9.31494 0.5 9Z" fill="#B4B4B4"/>
</svg>
