<svg width="49" height="51" viewBox="0 0 49 51" fill="none" xmlns="http://www.w3.org/2000/svg">
<path d="M45.6788 20.6968C47.2162 19.4882 48.2153 17.5844 48.2153 15.44C48.2153 11.7936 45.34 8.82666 41.8061 8.82666C38.2723 8.82666 35.397 11.7936 35.397 15.44C35.397 17.4157 36.2454 19.1873 37.5809 20.4H33.3253L27.9521 14.8555C27.6388 14.5323 27.1325 14.5323 26.8193 14.8555L23.6147 18.1622C23.3015 18.4854 23.3015 19.0079 23.6147 19.3311L30.8249 26.7711C30.9748 26.9265 31.1783 27.0133 31.3914 27.0133H37.8005V32.8H33.7948H24.0754L28.0522 26.6455L26.7191 25.7287L22.1502 32.8H20.1754V28.6667C20.1754 28.2095 19.8173 27.84 19.3743 27.84H12.9652V24.5333C12.9652 22.7907 11.9109 21.3035 10.4288 20.6968C11.9662 19.4882 12.9652 17.5844 12.9652 15.44C12.9652 11.7936 10.0899 8.82666 6.55608 8.82666C3.02226 8.82666 0.146973 11.7936 0.146973 15.44C0.146973 17.5844 1.14599 19.4882 2.68338 20.6968C1.20127 21.3035 0.146973 22.7907 0.146973 24.5333V36.1067C0.146973 38.3858 1.94393 40.24 4.15266 40.24V50.16H5.75494V40.24H11.3629V49.3333C11.3629 49.7905 11.721 50.16 12.164 50.16H17.772C18.215 50.16 18.5731 49.7905 18.5731 49.3333V36.9333C18.5731 36.0033 18.2743 35.1444 17.7704 34.4533H18.5731H19.3743H23.38V48.5067H20.1754V50.16H28.1868V48.5067H24.9823V34.4533H30.611C30.1023 35.1461 29.7891 35.9992 29.7891 36.9333V49.3333C29.7891 49.7905 30.1472 50.16 30.5902 50.16H36.1982C36.6412 50.16 36.9993 49.7905 36.9993 49.3333V40.24H42.6073V50.16H44.2096V40.24C46.4183 40.24 48.2153 38.3858 48.2153 36.1067V24.5333C48.2153 22.7907 47.161 21.3035 45.6788 20.6968ZM1.74925 15.44C1.74925 12.7046 3.90511 10.48 6.55608 10.48C9.20704 10.48 11.3629 12.7046 11.3629 15.44C11.3629 18.1754 9.20704 20.4 6.55608 20.4C3.90511 20.4 1.74925 18.1754 1.74925 15.44ZM18.5731 32.8H8.15835V26.1867H6.55608V33.6267C6.55608 34.0838 6.91419 34.4533 7.35721 34.4533H14.5675C15.8925 34.4533 16.9709 35.566 16.9709 36.9333V48.5067H12.9652V39.4133C12.9652 38.9562 12.6071 38.5867 12.164 38.5867H4.15266C2.82758 38.5867 1.74925 37.474 1.74925 36.1067V24.5333C1.74925 23.166 2.82758 22.0533 4.15266 22.0533H8.95949C10.2846 22.0533 11.3629 23.166 11.3629 24.5333V28.6667C11.3629 29.1238 11.721 29.4933 12.164 29.4933H18.5731V32.8ZM36.9993 15.44C36.9993 12.7046 39.1552 10.48 41.8061 10.48C44.4571 10.48 46.613 12.7046 46.613 15.44C46.613 18.1754 44.4571 20.4 41.8061 20.4C39.1552 20.4 36.9993 18.1754 36.9993 15.44ZM46.613 36.1067C46.613 37.474 45.5346 38.5867 44.2096 38.5867H36.1982C35.7552 38.5867 35.397 38.9562 35.397 39.4133V48.5067H31.3914V36.9333C31.3914 35.566 32.4697 34.4533 33.7948 34.4533H38.6016C39.0446 34.4533 39.4027 34.0838 39.4027 33.6267V26.1867C39.4027 25.7295 39.0446 25.36 38.6016 25.36H31.723L25.3139 18.7467L27.3857 16.6089L32.4272 21.8111C32.577 21.9665 32.7805 22.0533 32.9936 22.0533H44.2096C45.5346 22.0533 46.613 23.166 46.613 24.5333V36.1067Z" fill="#17A2B8"/>
<path d="M32.1928 0.559998H16.17C14.8449 0.559998 13.7666 1.67269 13.7666 3.04V9.65333C13.7666 11.0206 14.8449 12.1333 16.17 12.1333H16.9712V17.0933C16.9712 17.4273 17.1658 17.7299 17.4655 17.8572C17.5648 17.9002 17.6689 17.92 17.7723 17.92C17.9806 17.92 18.1857 17.8357 18.3387 17.6778L23.7119 12.1333H32.1928C33.5179 12.1333 34.5962 11.0206 34.5962 9.65333V3.04C34.5962 1.67269 33.5179 0.559998 32.1928 0.559998ZM32.9939 9.65333C32.9939 10.1097 32.635 10.48 32.1928 10.48H23.3803C23.1672 10.48 22.9637 10.5668 22.8139 10.7222L18.5734 15.0978V11.3067C18.5734 10.8495 18.2153 10.48 17.7723 10.48H16.17C15.7278 10.48 15.3689 10.1097 15.3689 9.65333V3.04C15.3689 2.58368 15.7278 2.21333 16.17 2.21333H32.1928C32.635 2.21333 32.9939 2.58368 32.9939 3.04V9.65333Z" fill="#17A2B8"/>
<path d="M21.7775 3.86661H16.9707V5.51994H21.7775V3.86661Z" fill="#17A2B8"/>
<path d="M31.3912 7.17332H16.9707V8.82666H31.3912V7.17332Z" fill="#17A2B8"/>
<path d="M31.3913 3.86661H23.3799V5.51994H31.3913V3.86661Z" fill="#17A2B8"/>
</svg>
