<svg width="49" height="48" viewBox="0 0 49 48" fill="none" xmlns="http://www.w3.org/2000/svg">
<g clip-path="url(#clip0)">
<path d="M48.547 37.652L45.7623 29.5476C47.1046 26.8036 47.814 23.7519 47.8188 20.6813C47.827 15.3423 45.7614 10.2941 42.0022 6.4668C38.2423 2.63874 33.2321 0.483849 27.8943 0.399287C22.3593 0.311822 17.1567 2.41717 13.2454 6.32839C9.47389 10.0998 7.38203 15.0717 7.31582 20.3848C3.59864 23.1835 1.4046 27.547 1.41181 32.2077C1.41528 34.3887 1.90617 36.5567 2.83636 38.5171L0.918206 44.0992C0.588479 45.0588 0.829336 46.1007 1.54685 46.8182C2.05179 47.3232 2.71752 47.5921 3.40217 47.5921C3.69022 47.5921 3.98165 47.5445 4.26586 47.4469L9.84801 45.5287C11.8085 46.4589 13.9765 46.9498 16.1575 46.9532C16.1654 46.9532 16.1729 46.9532 16.1807 46.9532C20.9108 46.9531 25.3075 44.7025 28.096 40.8942C30.9978 40.8177 33.8689 40.1153 36.4645 38.8456L44.569 41.6304C44.9066 41.7464 45.253 41.803 45.5952 41.803C46.4088 41.803 47.1999 41.4835 47.8001 40.8832C48.6527 40.0306 48.9389 38.7925 48.547 37.652ZM16.1805 44.0993C16.1745 44.0993 16.168 44.0993 16.1619 44.0993C14.2315 44.0964 12.3145 43.6205 10.6184 42.7232C10.2697 42.5388 9.86028 42.5068 9.48738 42.635L3.76345 44.6018L5.7303 38.878C5.85841 38.505 5.82657 38.0956 5.64209 37.7469C4.74477 36.0508 4.26886 34.1339 4.26586 32.2033C4.26109 29.0981 5.46903 26.1549 7.5814 23.9511C8.27139 28.1573 10.2761 32.0333 13.3834 35.0854C16.4678 38.1149 20.345 40.0439 24.5283 40.6745C22.3194 42.8517 19.3418 44.0993 16.1805 44.0993ZM45.7819 38.8651C45.7007 38.9463 45.6044 38.9684 45.4961 38.9312L36.82 35.9498C36.6694 35.8981 36.5126 35.8724 36.3564 35.8724C36.1261 35.8724 35.8967 35.9281 35.6891 36.0381C33.2118 37.3485 30.4126 38.0436 27.5937 38.0479C27.5844 38.0479 27.576 38.0479 27.5667 38.0479C18.1213 38.0479 10.3193 30.3751 10.1697 20.9319C10.0943 16.1761 11.9034 11.7065 15.2635 8.34637C18.6236 4.98626 23.094 3.17786 27.8491 3.25277C37.3014 3.4027 44.9794 11.2191 44.9648 20.6768C44.9604 23.4958 44.2655 26.2951 42.9551 28.7722C42.7706 29.1208 42.7387 29.5302 42.8668 29.9032L45.8481 38.5793C45.8852 38.688 45.863 38.7841 45.7819 38.8651Z" fill="#17A2B8"/>
<path d="M36.0675 13.0858H19.0652C18.277 13.0858 17.6382 13.7247 17.6382 14.5128C17.6382 15.3009 18.2771 15.9397 19.0652 15.9397H36.0675C36.8557 15.9397 37.4945 15.3008 37.4945 14.5128C37.4945 13.7247 36.8557 13.0858 36.0675 13.0858Z" fill="#17A2B8"/>
<path d="M36.0675 18.9547H19.0652C18.277 18.9547 17.6382 19.5936 17.6382 20.3817C17.6382 21.1697 18.2771 21.8086 19.0652 21.8086H36.0675C36.8557 21.8086 37.4945 21.1697 37.4945 20.3817C37.4945 19.5936 36.8557 18.9547 36.0675 18.9547Z" fill="#17A2B8"/>
<path d="M29.5229 24.8234H19.0652C18.277 24.8234 17.6382 25.4623 17.6382 26.2504C17.6382 27.0385 18.2771 27.6774 19.0652 27.6774H29.5228C30.3109 27.6774 30.9498 27.0384 30.9498 26.2504C30.9498 25.4623 30.311 24.8234 29.5229 24.8234Z" fill="#17A2B8"/>
</g>
<defs>
<clipPath id="clip0">
<rect width="47.9467" height="47.9467" fill="white" transform="translate(0.772949 0.0210571)"/>
</clipPath>
</defs>
</svg>
