<svg width="58" height="57" viewBox="0 0 58 57" fill="none" xmlns="http://www.w3.org/2000/svg">
<path d="M29.6666 31.2406C29.5626 31.2182 29.4559 31.2141 29.3506 31.2298C28.2948 31.1075 27.4984 30.2189 27.4966 29.1619C27.4966 28.6553 27.0837 28.2446 26.5745 28.2446C26.0653 28.2446 25.6524 28.6553 25.6524 29.1619C25.6551 30.927 26.8419 32.4732 28.5528 32.9404V33.8577C28.5528 34.3643 28.9656 34.775 29.4748 34.775C29.9841 34.775 30.3969 34.3643 30.3969 33.8577V32.9959C32.3716 32.5847 33.7137 30.755 33.5062 28.7587C33.2982 26.7624 31.6076 25.2454 29.5901 25.2449C28.4339 25.2449 27.4966 24.3124 27.4966 23.1622C27.4966 22.012 28.4339 21.0794 29.5901 21.0794C30.7463 21.0794 31.6837 22.012 31.6837 23.1622C31.6837 23.6688 32.0965 24.0795 32.6057 24.0795C33.1149 24.0795 33.5278 23.6688 33.5278 23.1622C33.5251 21.3088 32.2199 19.7102 30.3969 19.3277V18.4928C30.3969 17.9862 29.9841 17.5755 29.4748 17.5755C28.9656 17.5755 28.5528 17.9862 28.5528 18.4928V19.3837C26.6501 19.9006 25.4255 21.7383 25.6876 23.6831C25.9496 25.6279 27.6177 27.0796 29.5901 27.0791C30.731 27.0791 31.6616 27.9879 31.6823 29.1224C31.7035 30.257 30.8066 31.1994 29.6666 31.2406Z" fill="#17A2B8"/>
<path d="M16.2197 26.2326C16.2197 33.5791 22.2059 39.5344 29.5905 39.5344C36.9751 39.5344 42.9613 33.5791 42.9613 26.2326C42.9613 18.8861 36.9751 12.9308 29.5905 12.9308C22.2095 12.9388 16.2283 18.8897 16.2197 26.2326ZM29.5905 14.7654C35.9567 14.7654 41.1172 19.8992 41.1172 26.2326C41.1172 32.5659 35.9567 37.6998 29.5905 37.6998C23.2243 37.6998 18.0638 32.5659 18.0638 26.2326C18.0711 19.9024 23.2275 14.7725 29.5905 14.7654Z" fill="#17A2B8"/>
<path d="M47.5063 41.7958L40.2833 45.1909C39.2861 43.3455 37.3731 42.1711 35.2678 42.112L28.6 41.9297C27.5442 41.8997 26.5082 41.6336 25.5695 41.1512L24.891 40.8014C21.4171 38.9999 17.2764 39.0044 13.806 40.8131L13.8484 39.2839C13.8623 38.7773 13.4612 38.3554 12.952 38.3415L5.64031 38.1413C5.13111 38.1274 4.70745 38.5265 4.69349 39.0331L4.25182 54.9954C4.23786 55.502 4.63901 55.924 5.14822 55.9378L12.4599 56.138H12.4851C12.9848 56.138 13.3936 55.7425 13.4071 55.2458L13.4283 54.4822L15.3278 53.4703C16.0734 53.0713 16.945 52.9763 17.7595 53.2056L29.1024 56.3727C29.1222 56.3786 29.1421 56.3831 29.1623 56.3875C29.9822 56.5582 30.8178 56.6437 31.6552 56.6433C33.4291 56.6442 35.1823 56.2639 36.7945 55.5276C36.8342 55.5096 36.8724 55.4886 36.9089 55.4648L53.3552 44.8818C53.7649 44.618 53.8972 44.0827 53.6573 43.6599C52.4363 41.5046 49.7281 40.6836 47.5063 41.7958ZM6.1207 54.1292L6.5115 40.0006L11.9795 40.1502L11.5887 54.2793L6.1207 54.1292ZM35.9639 53.8891C33.9608 54.7885 31.7236 55.0367 29.5707 54.5991L18.2583 51.44C16.9851 51.0821 15.6223 51.2304 14.4575 51.8534L13.4868 52.3707L13.7466 42.9769C16.8226 40.9416 20.7674 40.7324 24.0433 42.4304L24.7218 42.7802C25.9076 43.3894 27.2155 43.7253 28.5496 43.7638L35.2178 43.9461C37.0908 43.9999 38.6814 45.3266 39.0614 47.1522L29.129 46.8794C28.6198 46.8656 28.1961 47.2651 28.1817 47.7712C28.1678 48.2778 28.5694 48.6997 29.0781 48.7136L40.0393 49.0137H40.065C40.5643 49.0133 40.9726 48.6178 40.9861 48.1215C40.9974 47.7228 40.9677 47.3238 40.897 46.9314L48.3054 43.449C48.3126 43.4458 48.3198 43.4422 48.327 43.4387C49.3779 42.9097 50.6484 43.0866 51.5128 43.8825L35.9639 53.8891Z" fill="#17A2B8"/>
<path d="M30.5121 10.3517V1.63731C30.5121 1.13073 30.0992 0.720001 29.59 0.720001C29.0808 0.720001 28.668 1.13073 28.668 1.63731V10.3517C28.668 10.8583 29.0808 11.269 29.59 11.269C30.0992 11.269 30.5121 10.8583 30.5121 10.3517Z" fill="#17A2B8"/>
<path d="M37.4276 10.3518V6.22388C37.4276 5.71731 37.0148 5.30658 36.5056 5.30658C35.9964 5.30658 35.5835 5.71731 35.5835 6.22388V10.3518C35.5835 10.8583 35.9964 11.2691 36.5056 11.2691C37.0148 11.2691 37.4276 10.8583 37.4276 10.3518Z" fill="#17A2B8"/>
<path d="M23.5966 10.3518V6.22388C23.5966 5.71731 23.1837 5.30658 22.6745 5.30658C22.1653 5.30658 21.7524 5.71731 21.7524 6.22388V10.3518C21.7524 10.8583 22.1653 11.2691 22.6745 11.2691C23.1837 11.2691 23.5966 10.8583 23.5966 10.3518Z" fill="#17A2B8"/>
</svg>
