<svg width="42" height="52" viewBox="0 0 42 52" fill="none" xmlns="http://www.w3.org/2000/svg">
<path d="M20.4871 25.0622C23.7742 25.0622 26.6201 23.8458 28.9461 21.4456C31.2714 19.0458 32.4507 16.1096 32.4507 12.7174C32.4507 9.32637 31.2718 6.38973 28.9458 3.98919C26.6197 1.58982 23.7738 0.373322 20.4871 0.373322C17.1996 0.373322 14.3541 1.58982 12.0284 3.98958C9.70275 6.38934 8.52344 9.32598 8.52344 12.7174C8.52344 16.1096 9.70275 19.0462 12.0284 21.446C14.3548 23.8454 17.2008 25.0622 20.4871 25.0622ZM14.0869 6.11327C15.8714 4.2719 17.9648 3.37683 20.4871 3.37683C23.009 3.37683 25.1028 4.2719 26.8877 6.11327C28.6722 7.95503 29.54 10.1155 29.54 12.7174C29.54 15.3201 28.6722 17.4802 26.8877 19.3219C25.1028 21.1637 23.009 22.0587 20.4871 22.0587C17.9655 22.0587 15.8722 21.1633 14.0869 19.3219C12.302 17.4805 11.4342 15.3201 11.4342 12.7174C11.4342 10.1155 12.302 7.95503 14.0869 6.11327Z" fill="#17A2B8"/>
<path d="M41.42 39.7846C41.353 38.7859 41.2173 37.6965 41.0176 36.5461C40.816 35.3871 40.5564 34.2914 40.2457 33.29C39.9243 32.2549 39.4881 31.2327 38.9481 30.2532C38.3884 29.2365 37.7305 28.3512 36.9923 27.6227C36.2204 26.8606 35.2753 26.2479 34.1824 25.8009C33.0932 25.3563 31.8863 25.1311 30.5952 25.1311C30.0881 25.1311 29.5977 25.3458 28.6507 25.982C28.0679 26.3742 27.3862 26.8278 26.6252 27.3295C25.9745 27.7573 25.0931 28.1581 24.0043 28.5209C22.9421 28.8756 21.8636 29.0555 20.7988 29.0555C19.7346 29.0555 18.6561 28.8756 17.5932 28.5209C16.5056 28.1585 15.6237 27.7577 14.9742 27.3299C14.2205 26.8329 13.5383 26.3793 12.9468 25.9816C12.0005 25.3454 11.5102 25.1307 11.0031 25.1307C9.71163 25.1307 8.50503 25.3563 7.41629 25.8013C6.32414 26.2475 5.37864 26.8602 4.60595 27.6231C3.86775 28.352 3.20988 29.2369 2.65054 30.2532C2.11128 31.2327 1.67473 32.2545 1.35337 33.2904C1.04301 34.2918 0.783421 35.3871 0.581816 36.5461C0.381727 37.6949 0.24644 38.7847 0.179365 39.7858C0.113426 40.7645 0.0800781 41.7832 0.0800781 42.8124C0.0800781 45.4878 0.904308 47.6537 2.52965 49.2511C4.13491 50.8273 6.25858 51.6266 8.84193 51.6266H32.7586C35.3412 51.6266 37.4649 50.8273 39.0705 49.2511C40.6962 47.6549 41.5205 45.4882 41.5205 42.812C41.5201 41.7793 41.4864 40.7606 41.42 39.7846ZM37.0636 47.075C36.0029 48.1167 34.5947 48.6231 32.7582 48.6231H8.84193C7.00513 48.6231 5.59692 48.1167 4.5366 47.0754C3.49637 46.0536 2.99084 44.6588 2.99084 42.8124C2.99084 41.852 3.02154 40.9037 3.08293 39.9934C3.1428 39.1003 3.26521 38.1192 3.44673 37.0767C3.62597 36.0471 3.8541 35.0809 4.12544 34.2062C4.38578 33.3674 4.74086 32.5368 5.18121 31.7368C5.60147 30.9743 6.08502 30.3201 6.61859 29.793C7.11767 29.2999 7.74674 28.8963 8.48798 28.5937C9.17351 28.3137 9.94393 28.1604 10.7803 28.1373C10.8822 28.1933 11.0637 28.3 11.3578 28.4979C11.9562 28.9002 12.6459 29.3593 13.4083 29.8618C14.2678 30.4272 15.3751 30.9379 16.6981 31.3786C18.0506 31.8299 19.43 32.059 20.7991 32.059C22.1683 32.059 23.5481 31.8299 24.8998 31.379C26.2239 30.9375 27.3308 30.4272 28.1914 29.861C28.9717 29.3464 29.6421 28.9006 30.2404 28.4979C30.5345 28.3004 30.716 28.1933 30.818 28.1373C31.6547 28.1604 32.4251 28.3137 33.111 28.5937C33.8519 28.8963 34.481 29.3003 34.9801 29.793C35.5136 30.3197 35.9972 30.9739 36.4174 31.7372C36.8582 32.5368 37.2136 33.3678 37.4736 34.2058C37.7453 35.0817 37.9738 36.0475 38.1527 37.0763C38.3338 38.1208 38.4566 39.1023 38.5165 39.9938V39.9946C38.5782 40.9014 38.6093 41.8492 38.6097 42.8124C38.6093 44.6592 38.1038 46.0536 37.0636 47.075Z" fill="#17A2B8"/>
</svg>
