<svg width="52" height="49" viewBox="0 0 52 49" fill="none" xmlns="http://www.w3.org/2000/svg">
<path fill-rule="evenodd" clip-rule="evenodd" d="M15.6454 11.3729C15.8037 11.5308 15.9293 11.7184 16.015 11.9249C16.1007 12.1315 16.1448 12.3529 16.1448 12.5764C16.1448 12.8 16.1007 13.0214 16.015 13.228C15.9293 13.4345 15.8037 13.6221 15.6454 13.78L4.94639 24.4756L15.6454 35.1713C15.9646 35.4904 16.144 35.9234 16.144 36.3748C16.144 36.8262 15.9646 37.2591 15.6454 37.5783C15.3262 37.8975 14.8933 38.0768 14.4419 38.0768C13.9905 38.0768 13.5576 37.8975 13.2384 37.5783L1.33925 25.6791C1.18094 25.5212 1.05535 25.3336 0.969651 25.1271C0.883955 24.9206 0.839844 24.6992 0.839844 24.4756C0.839844 24.252 0.883955 24.0306 0.969651 23.8241C1.05535 23.6176 1.18094 23.43 1.33925 23.2721L13.2384 11.3729C13.3963 11.2146 13.5839 11.089 13.7904 11.0033C13.9969 10.9176 14.2183 10.8735 14.4419 10.8735C14.6655 10.8735 14.8869 10.9176 15.0934 11.0033C15.3 11.089 15.4875 11.2146 15.6454 11.3729ZM37.0367 11.3729C36.8784 11.5308 36.7528 11.7184 36.6671 11.9249C36.5814 12.1315 36.5373 12.3529 36.5373 12.5764C36.5373 12.8 36.5814 13.0214 36.6671 13.228C36.7528 13.4345 36.8784 13.6221 37.0367 13.78L47.7358 24.4756L37.0367 35.1713C36.8787 35.3293 36.7533 35.5169 36.6678 35.7234C36.5822 35.9299 36.5382 36.1513 36.5382 36.3748C36.5382 36.5983 36.5822 36.8196 36.6678 37.0261C36.7533 37.2326 36.8787 37.4202 37.0367 37.5783C37.1948 37.7363 37.3824 37.8617 37.5889 37.9472C37.7954 38.0328 38.0167 38.0768 38.2402 38.0768C38.4638 38.0768 38.6851 38.0328 38.8916 37.9472C39.0981 37.8617 39.2857 37.7363 39.4438 37.5783L51.3429 25.6791C51.5012 25.5212 51.6268 25.3336 51.7125 25.1271C51.7982 24.9206 51.8423 24.6992 51.8423 24.4756C51.8423 24.252 51.7982 24.0306 51.7125 23.8241C51.6268 23.6176 51.5012 23.43 51.3429 23.2721L39.4438 11.3729C39.2859 11.2146 39.0983 11.089 38.8918 11.0033C38.6852 10.9176 38.4638 10.8735 38.2402 10.8735C38.0167 10.8735 37.7953 10.9176 37.5887 11.0033C37.3822 11.089 37.1946 11.2146 37.0367 11.3729ZM33.6404 0.75208C34.0708 0.885262 34.4307 1.18388 34.6411 1.5823C34.8515 1.98073 34.8951 2.44638 34.7623 2.87693L21.1633 47.0738C21.0176 47.4883 20.7172 47.8303 20.325 48.0281C19.9328 48.2259 19.4792 48.2642 19.0593 48.135C18.6395 48.0057 18.286 47.7189 18.0729 47.3348C17.8599 46.9506 17.8038 46.4989 17.9165 46.0743L31.5155 1.8774C31.6487 1.44698 31.9473 1.08704 32.3457 0.876665C32.7442 0.666295 33.2098 0.622707 33.6404 0.75548V0.75208Z" fill="#17A2B8"/>
</svg>
