<?xml version="1.0" standalone="no"?>
<!DOCTYPE svg PUBLIC "-//W3C//DTD SVG 20010904//EN"
 "http://www.w3.org/TR/2001/REC-SVG-20010904/DTD/svg10.dtd">
<svg version="1.0" xmlns="http://www.w3.org/2000/svg"
 width="36.000000pt" height="36.000000pt" viewBox="0 0 36.000000 36.000000"
 preserveAspectRatio="xMidYMid meet">

<g transform="translate(0.000000,36.000000) scale(0.100000,-0.100000)"
fill="#000000" stroke="none">
<path d="M105 299 c-4 -22 -11 -39 -16 -39 -13 0 -11 44 4 60 10 12 9 12 -5 1
-10 -7 -18 -24 -18 -37 0 -19 -5 -24 -25 -24 -25 0 -25 -1 -23 -77 l2 -78 3
73 c3 64 6 72 23 72 21 0 28 -34 10 -45 -6 -3 -10 -17 -10 -31 0 -19 5 -24 23
-23 16 1 18 2 5 6 -10 2 -18 14 -18 25 0 14 5 18 15 15 11 -5 13 0 8 23 -5 29
-5 30 35 30 23 0 43 -5 45 -12 4 -10 6 -10 6 0 2 22 21 13 22 -10 1 -21 1 -22
7 -3 4 11 15 21 25 23 14 2 17 -4 16 -35 -1 -38 -1 -38 -9 -8 l-8 30 -1 -28
c0 -15 -4 -26 -8 -26 -31 5 -53 -3 -52 -18 0 -11 3 -13 6 -5 6 16 110 16 116
0 4 -10 6 -10 6 0 1 6 6 12 11 12 6 0 11 -21 12 -47 l1 -48 7 50 6 50 5 -50 5
-50 2 53 2 52 -45 0 -45 0 0 40 c0 36 -2 40 -25 40 -20 0 -25 5 -25 24 0 13
-8 30 -17 37 -15 11 -16 11 -5 -1 14 -16 16 -60 3 -60 -5 0 -12 17 -16 39 -5
32 -10 39 -30 39 -20 0 -25 -7 -30 -39z m49 5 c12 -31 6 -44 -19 -44 -25 0
-31 13 -19 44 3 9 12 16 19 16 7 0 16 -7 19 -16z"/>
<path d="M192 115 c0 -16 2 -22 5 -12 2 9 2 23 0 30 -3 6 -5 -1 -5 -18z"/>
<path d="M252 115 c0 -16 2 -22 5 -12 2 9 2 23 0 30 -3 6 -5 -1 -5 -18z"/>
<path d="M152 78 l-2 -48 -64 0 c-59 0 -65 2 -69 23 -4 19 -4 18 -6 -5 l-1
-28 170 0 c166 0 170 0 170 21 0 17 -5 20 -24 17 -22 -5 -25 -1 -29 31 -3 31
-4 30 -5 -11 l-2 -48 -64 0 -65 0 -4 48 -3 47 -2 -47z m178 -38 c0 -5 -4 -10
-10 -10 -5 0 -10 5 -10 10 0 6 5 10 10 10 6 0 10 -4 10 -10z"/>
<path d="M213 73 c9 -2 23 -2 30 0 6 3 -1 5 -18 5 -16 0 -22 -2 -12 -5z"/>
</g>
</svg>
