<svg width="91" height="91" viewBox="0 0 91 91" fill="none" xmlns="http://www.w3.org/2000/svg">
<g clip-path="url(#clip0)">
<path d="M65.4333 58.7318L67.0058 39.5183H67.2182C69.3549 39.5183 71.0932 37.7801 71.0932 35.6433C71.0932 33.5066 69.3549 31.7683 67.2182 31.7683H66.6205C66.3883 30.7213 66.0094 29.7235 65.4948 28.7976H66.2205C67.0447 28.7976 67.7809 28.3056 68.0962 27.5442C68.4116 26.7828 68.2388 25.9143 67.6561 25.3317L64.6352 22.3108C64.0524 21.7281 63.1842 21.5553 62.4226 21.8707C61.6612 22.186 61.1693 22.9223 61.1693 23.7464V24.4793C59.8768 23.762 58.4462 23.3007 56.9648 23.1426C54.6292 22.8932 52.2559 23.3964 50.2345 24.5605C49.3754 24.0338 48.4504 23.6271 47.4846 23.3509L48.0011 22.8344C48.5839 22.2517 48.7568 21.3831 48.4414 20.6218C48.1258 19.8603 47.3896 19.3683 46.5655 19.3683H42.2932C41.4691 19.3683 40.7328 19.8603 40.4174 20.6216C40.1021 21.3829 40.2749 22.2515 40.8575 22.8343L41.3741 23.3508C40.4836 23.6055 39.6272 23.97 38.8255 24.4384C35.436 22.584 31.3858 22.6588 28.1106 24.4763V23.7465C28.1106 22.9223 27.6186 22.186 26.8572 21.8708C26.0958 21.5553 25.2273 21.7282 24.6446 22.3109L21.6237 25.3317C21.0409 25.9144 20.8681 26.7828 21.1835 27.5443C21.4989 28.3058 22.2351 28.7977 23.0592 28.7977H23.786C23.2712 29.7239 22.89 30.7214 22.6577 31.7684H22.0615C19.9248 31.7683 18.1865 33.5066 18.1865 35.6433C18.1865 37.7801 19.9248 39.5183 22.0615 39.5183H22.2739L23.8463 58.7304C21.0951 59.712 19.2199 62.3352 19.2199 65.3C19.2199 66.5487 19.5539 67.7741 20.186 68.8437C20.3306 69.0885 20.5888 69.2246 20.854 69.2246C20.988 69.2246 21.1238 69.1899 21.2476 69.1167C21.6161 68.899 21.7383 68.4237 21.5206 68.0553C21.0294 67.2243 20.7699 66.2715 20.7699 65.3C20.7699 63.125 22.0675 61.1871 24.0098 60.3333C24.1642 61.1962 24.4784 62.0159 24.9334 62.7546C23.9979 63.2202 23.3532 64.186 23.3532 65.3C23.3532 66.867 24.628 68.1417 26.1949 68.1417C27.5856 68.1417 28.7455 67.1371 28.9888 65.8155C29.5969 65.986 30.2305 66.075 30.8748 66.075H31.5625C31.1826 68.6943 28.9062 70.725 26.1949 70.725C25.2079 70.725 24.2422 70.4577 23.4018 69.9518C23.0349 69.731 22.5588 69.8494 22.338 70.2161C22.1173 70.5828 22.2356 71.059 22.6024 71.2797C23.6841 71.9308 24.9263 72.275 26.1949 72.275C28.0384 72.275 29.7768 71.5625 31.0899 70.2688C32.2426 69.1331 32.9521 67.6631 33.127 66.075H56.1538C56.33 67.6729 57.0465 69.1513 58.2098 70.2883C59.5204 71.5695 61.2518 72.275 63.0849 72.275C66.9309 72.275 70.0599 69.1461 70.0599 65.3C70.0599 62.3466 68.1804 59.7142 65.4333 58.7318ZM61.7997 65.1938C62.2758 64.9282 62.723 64.6056 63.1315 64.2293C63.2009 64.1653 63.2682 64.0995 63.3347 64.033C63.9277 64.1498 64.3765 64.6732 64.3765 65.3C64.3765 66.0123 63.7971 66.5917 63.0849 66.5917C62.3726 66.5917 61.7932 66.0123 61.7932 65.3C61.7932 65.2644 61.7969 65.2291 61.7997 65.1938ZM62.7193 23.7464C62.7193 23.4567 62.9267 23.3396 63.0157 23.3027C63.1049 23.2658 63.3343 23.202 63.539 23.4068L66.5601 26.4279C66.7648 26.6326 66.701 26.8621 66.6641 26.9512C66.6272 27.0402 66.51 27.2477 66.2204 27.2477H64.4527C64.1979 26.9303 63.9253 26.6245 63.6339 26.3331C63.344 26.0433 63.0375 25.7726 62.7192 25.5181V23.7464H62.7193ZM62.5378 27.429C63.7507 28.6419 64.6008 30.1295 65.0269 31.7683H55.3058C54.8131 29.3911 53.5447 27.2257 51.6925 25.6237C51.6725 25.6065 51.6516 25.5905 51.6315 25.5734C55.2645 23.8102 59.6176 24.5089 62.5378 27.429ZM44.4294 24.4704C48.8317 24.4704 52.6896 27.5564 53.7171 31.7683H35.1415C36.1689 27.5559 40.0258 24.4704 44.4294 24.4704ZM41.9536 21.7383C41.7488 21.5335 41.8126 21.304 41.8494 21.2149C41.8863 21.1258 42.0035 20.9183 42.2932 20.9183H46.5655C46.8552 20.9183 46.9724 21.1256 47.0093 21.2148C47.0461 21.304 47.1099 21.5334 46.905 21.7382L45.6525 22.9908C45.2479 22.946 44.8399 22.9205 44.4294 22.9205C44.0187 22.9205 43.6108 22.946 43.2061 22.9908L41.9536 21.7383ZM23.0592 27.2476C22.7696 27.2476 22.6524 27.0402 22.6155 26.951C22.5786 26.8619 22.5147 26.6325 22.7197 26.4277L25.7406 23.4067C25.9452 23.202 26.1746 23.2657 26.2639 23.3026C26.353 23.3394 26.5603 23.4566 26.5603 23.7463V25.5167C26.2438 25.7702 25.9376 26.041 25.6456 26.3329C25.3543 26.6243 25.0814 26.9299 24.8265 27.2475L23.0592 27.2476ZM26.7419 27.429C29.5601 24.6107 33.8033 23.8611 37.3773 25.4493C37.3057 25.5082 37.2331 25.5658 37.1629 25.6266C35.3123 27.2284 34.0453 29.3925 33.5529 31.7683H24.252C24.6782 30.1294 25.5304 28.6405 26.7419 27.429ZM27.4865 65.3C27.4865 66.0123 26.9071 66.5917 26.1949 66.5917C25.4826 66.5917 24.9032 66.0123 24.9032 65.3C24.9032 64.6733 25.3521 64.1498 25.945 64.033C26.0115 64.0995 26.0788 64.1653 26.1483 64.2293C26.5571 64.6061 27.0051 64.9289 27.4819 65.1948C27.4847 65.2297 27.4865 65.2648 27.4865 65.3ZM25.4679 59.5426L23.8289 39.5183H53.091C53.5191 39.5183 53.866 39.1714 53.866 38.7433C53.866 38.3153 53.5191 37.9683 53.091 37.9683H22.0615C20.7796 37.9683 19.7365 36.9254 19.7365 35.6433C19.7365 34.3613 20.7796 33.3183 22.0615 33.3183H67.2182C68.5001 33.3183 69.5432 34.3613 69.5432 35.6433C69.5432 36.9254 68.5001 37.9683 67.2182 37.9683H56.191C55.7629 37.9683 55.416 38.3153 55.416 38.7433C55.416 39.1714 55.7629 39.5183 56.191 39.5183H65.4507L63.8118 59.5426C63.5831 62.3364 61.2082 64.525 58.4049 64.525H30.8748C28.0715 64.525 25.6966 62.3364 25.4679 59.5426ZM63.0849 70.725C60.3823 70.725 58.0984 68.6911 57.7172 66.075H58.4049C59.0492 66.075 59.6828 65.9859 60.2909 65.8155C60.5342 67.1371 61.6941 68.1417 63.0849 68.1417C64.6517 68.1417 65.9265 66.867 65.9265 65.3C65.9265 64.186 65.2818 63.2202 64.3464 62.7547C64.8012 62.0161 65.1155 61.1966 65.2698 60.334C67.2097 61.1892 68.5099 63.1334 68.5099 65.3C68.5099 68.2914 66.0761 70.725 63.0849 70.725Z" fill="#17A2B8"/>
<path d="M45.8051 46.0004L47.0094 48.0863L46.4055 47.8232C46.013 47.6521 45.5563 47.8317 45.3854 48.2241C45.2145 48.6165 45.3939 49.0732 45.7863 49.2442L48.5476 50.4473C48.6466 50.4904 48.7521 50.5119 48.8572 50.5119C48.9914 50.5119 49.1252 50.477 49.2447 50.408C49.4576 50.285 49.5996 50.0683 49.6272 49.8241L49.9659 46.8312C50.0141 46.4059 49.7083 46.0221 49.2831 45.974C48.8579 45.9265 48.474 46.2316 48.4258 46.6569L48.3518 47.3116L47.1474 45.2256C46.6338 44.3359 45.7139 43.8048 44.6866 43.8048C44.6866 43.8048 44.6866 43.8048 44.6865 43.8048C43.6593 43.8048 42.7392 44.3359 42.2256 45.2256L40.8852 47.5473C40.6712 47.918 40.7982 48.392 41.1689 48.606C41.5396 48.8199 42.0136 48.6929 42.2275 48.3223L43.5679 46.0006C43.8015 45.5962 44.2197 45.3548 44.6866 45.3548C45.1536 45.3546 45.5717 45.5961 45.8051 46.0004Z" fill="#17A2B8"/>
<path d="M50.9805 51.8647C50.7666 51.494 50.2923 51.367 49.9218 51.5811C49.5512 51.7951 49.4242 52.2691 49.6382 52.6397L50.9786 54.9615C51.2122 55.366 51.2122 55.8487 50.9786 56.2532C50.7451 56.6576 50.3269 56.899 49.8601 56.899H47.4515L47.9813 56.5075C48.3256 56.2532 48.3984 55.7679 48.1441 55.4236C47.8897 55.0792 47.4044 55.0064 47.0602 55.2608L44.6377 57.0506C44.4399 57.1967 44.3232 57.428 44.3232 57.6739C44.3232 57.9198 44.4399 58.1511 44.6377 58.2972L47.0602 60.0869C47.1988 60.1893 47.3601 60.2386 47.5202 60.2386C47.7577 60.2386 47.9921 60.1298 48.1441 59.9241C48.3984 59.5798 48.3256 59.0946 47.9813 58.8402L47.4516 58.4488H49.8601C50.8873 58.4488 51.8074 57.9177 52.3209 57.028C52.8346 56.1383 52.8346 55.076 52.3209 54.1863L50.9805 51.8647Z" fill="#17A2B8"/>
<path d="M42.201 56.899H39.5201C39.0531 56.899 38.6351 56.6576 38.4015 56.2531C38.168 55.8487 38.168 55.3659 38.4015 54.9615L39.6058 52.8756L39.6799 53.5302C39.7246 53.926 40.0599 54.2182 40.4489 54.2181C40.478 54.2181 40.5074 54.2164 40.537 54.2131C40.9623 54.165 41.2681 53.7812 41.2199 53.3559L40.8813 50.3629C40.8536 50.1185 40.7116 49.9019 40.4988 49.7789C40.2856 49.6558 40.0271 49.6412 39.8017 49.7396L37.0403 50.9427C36.648 51.1136 36.4685 51.5704 36.6394 51.9627C36.8103 52.3552 37.267 52.5348 37.6595 52.3637L38.2635 52.1005L37.0592 54.1865C36.5456 55.0761 36.5456 56.1384 37.0592 57.0281C37.5729 57.9178 38.4929 58.449 39.5201 58.449H42.201C42.6291 58.449 42.976 58.102 42.976 57.674C42.976 57.246 42.6291 56.899 42.201 56.899Z" fill="#17A2B8"/>
</g>
<defs>
<clipPath id="clip0">
<rect width="52.9067" height="52.9067" fill="white" transform="translate(18.1865 19.3683)"/>
</clipPath>
</defs>
</svg>
