<svg width="59" height="46" viewBox="0 0 59 46" fill="none" xmlns="http://www.w3.org/2000/svg">
<path d="M51.8215 6.34281V3.20965C51.8215 2.83487 51.6645 2.49196 51.4178 2.24535C51.1679 1.99546 50.8283 1.84175 50.4535 1.84175H47.6406C47.2624 1.84175 46.9229 1.99546 46.673 2.24535C46.4263 2.49208 46.2725 2.83487 46.2725 3.20965V6.34292H51.8215V6.34281ZM16.3876 21.5765C16.0577 21.2435 16.0577 20.7083 16.3876 20.3783C16.7177 20.0452 17.2559 20.0452 17.5859 20.3783L18.3581 21.1505L20.5014 19.004C20.8314 18.6739 21.3696 18.6739 21.6996 19.004C22.0328 19.3372 22.0328 19.8722 21.6996 20.2054L18.9573 22.9478C18.6272 23.2779 18.0889 23.2779 17.7589 22.9478L16.3876 21.5765ZM48.198 11.7956C48.198 11.3278 48.5761 10.9466 49.047 10.9466C49.5148 10.9466 49.8928 11.3278 49.8928 11.7956V29.586C49.8928 30.0537 49.5147 30.435 49.047 30.435C48.5761 30.435 48.198 30.0537 48.198 29.586V11.7956ZM34.835 40.4756H40.0508V36.8392H34.835V40.4756ZM40.8966 42.1703C31.6825 42.1703 22.4651 42.1703 13.2511 42.1703C12.7833 42.1703 12.4021 41.789 12.4021 41.3212V35.9902C12.4021 35.5224 12.7833 35.1445 13.2511 35.1445H19.3159V30.3132C19.3159 29.8455 19.694 29.4675 20.1616 29.4675H27.0753C27.5431 29.4675 27.9212 29.8456 27.9212 30.3132V31.8189H33.9859C34.4537 31.8189 34.8349 32.2002 34.8349 32.668V35.1445H40.8964C41.3642 35.1445 41.7454 35.5225 41.7454 35.9902V41.3212C41.7456 41.789 41.3643 42.1703 40.8966 42.1703ZM27.9213 40.4756H33.1371V33.517H27.9213V40.4756ZM21.0108 40.4756H26.2264V32.668V31.1623H21.0108V40.4756ZM14.0969 40.4756H19.316V36.8392H14.0969V40.4756ZM10.5215 10.9467H44.5746V7.18866V3.20965C44.5746 2.36707 44.9205 1.60147 45.4748 1.0471C46.0291 0.492851 46.7948 0.146781 47.6406 0.146781H50.4535C51.296 0.146781 52.0618 0.492851 52.616 1.0471C53.1703 1.60136 53.5162 2.36707 53.5162 3.20965V7.18866V10.9467H57.1942C57.6619 10.9467 58.0399 11.3279 58.0399 11.7957V45.0279C58.0399 45.4957 57.6618 45.8738 57.1942 45.8738H33.7265C33.2587 45.8738 32.8808 45.4956 32.8808 45.0279C32.8808 44.5602 33.2588 44.1789 33.7265 44.1789H56.3453V12.6415H53.5163V18.7702C53.5163 19.238 53.135 19.6193 52.6673 19.6193C52.1995 19.6193 51.8215 19.238 51.8215 18.7702V11.7957V8.03778H46.2725V11.7957V33.3441H51.8215V22.6115C51.8215 22.1437 52.1995 21.7625 52.6673 21.7625C53.135 21.7625 53.5163 22.1437 53.5163 22.6115V34.1898C53.5163 34.3948 53.4619 34.4974 53.3721 34.6703L49.8032 41.6993C49.7231 41.8563 49.595 41.9908 49.4251 42.0774C49.0086 42.2889 48.5024 42.119 48.2909 41.7026L44.7091 34.6544C44.6258 34.4847 44.5746 34.3886 44.5746 34.1899V12.6415H10.5215V19.0553C10.5215 19.5231 10.1435 19.9044 9.67568 19.9044C9.20788 19.9044 8.82667 19.5231 8.82667 19.0553V11.7957V2.52723C8.09938 2.07243 7.2793 1.84175 6.42068 1.84175C5.16479 1.84175 4.02746 2.35114 3.20083 3.1745C2.37747 4.00102 1.86797 5.13835 1.86797 6.39423V35.3496C1.91284 35.3015 1.95771 35.2534 2.00247 35.2087C3.13347 34.0777 4.69689 33.3793 6.42057 33.3793C7.10943 33.3793 7.7758 33.4947 8.40691 33.7029C8.54796 33.7509 8.68889 33.8054 8.82655 33.863V22.8967C8.82655 22.429 9.20777 22.0477 9.67556 22.0477C10.1434 22.0477 10.5214 22.429 10.5214 22.8967V35.3176C10.5214 35.4938 10.4638 35.6732 10.3484 35.8271C10.0697 36.1987 9.53779 36.2723 9.16302 35.9904C8.77535 35.6958 8.33638 35.4618 7.8687 35.308C7.42023 35.1575 6.93323 35.0742 6.42068 35.0742C5.16479 35.0742 4.02746 35.5837 3.20083 36.407C2.37747 37.2303 1.86797 38.3709 1.86797 39.6267C1.86797 40.8858 2.37736 42.023 3.20083 42.8464C4.02735 43.6697 5.16468 44.1791 6.42068 44.1791H29.8883C30.3561 44.1791 30.7341 44.5605 30.7341 45.0281C30.7341 45.4959 30.356 45.874 29.8883 45.874H6.42068C4.697 45.874 3.13358 45.1755 2.00258 44.0446C0.871696 42.9136 0.17334 41.3534 0.17334 39.6265V6.39412C0.17334 4.67044 0.871696 3.10702 2.00258 1.97614C3.13358 0.845136 4.697 0.146667 6.42068 0.146667C7.75659 0.146667 9.07011 0.582363 10.1434 1.37701C10.3709 1.53072 10.5214 1.79022 10.5214 2.08509V10.9467H10.5215ZM51.2896 35.0388H46.8012L49.047 39.4568L51.2896 35.0388ZM39.9611 16.0823C40.4289 16.0823 40.8068 16.4635 40.8068 16.9313C40.8068 17.3991 40.4288 17.777 39.9611 17.777H28.4883C28.0205 17.777 27.6426 17.399 27.6426 16.9313C27.6426 16.4635 28.0207 16.0823 28.4883 16.0823H39.9611ZM35.1907 24.1749C35.6617 24.1749 36.0397 24.553 36.0397 25.0206C36.0397 25.4883 35.6617 25.8696 35.1907 25.8696H28.4884C28.0207 25.8696 27.6427 25.4884 27.6427 25.0206C27.6427 24.5528 28.0208 24.1749 28.4884 24.1749H35.1907ZM39.9611 20.1285C40.4289 20.1285 40.8068 20.5067 40.8068 20.9775C40.8068 21.4453 40.4288 21.8234 39.9611 21.8234H28.4883C28.0205 21.8234 27.6426 21.4452 27.6426 20.9775C27.6426 20.5067 28.0207 20.1285 28.4883 20.1285H39.9611ZM14.1898 15.2717H23.9005C24.3683 15.2717 24.7462 15.6529 24.7462 16.1207V25.8312C24.7462 26.299 24.3682 26.6802 23.9005 26.6802H14.1898C13.7189 26.6802 13.3408 26.299 13.3408 25.8312V16.1207C13.3408 15.6529 13.7189 15.2717 14.1898 15.2717ZM23.0516 16.9697H15.0357V24.9855H23.0516V16.9697Z" fill="#17A2B8"/>
</svg>
